<?xml version="1.0" encoding="utf-8"?>
<!-- Generator: Adobe Illustrator 28.0.0, SVG Export Plug-In . SVG Version: 6.00 Build 0)  -->
<svg version="1.1" id="Layer_1" xmlns="http://www.w3.org/2000/svg" xmlns:xlink="http://www.w3.org/1999/xlink" x="0px" y="0px"
	 viewBox="0 0 190.8 122.3" style="enable-background:new 0 0 190.8 122.3;" xml:space="preserve">
<style type="text/css">
	.st0{fill:#0C4B7F;}
	.st1{fill:#00A39F;}
	.st2{fill-rule:evenodd;clip-rule:evenodd;fill:none;stroke:#0C4B7F;stroke-width:0.9613;stroke-miterlimit:10;}
	.st3{fill-rule:evenodd;clip-rule:evenodd;fill:#0C4B7F;}
	.st4{fill:none;stroke:#0C4B7F;stroke-width:0.1373;stroke-miterlimit:10;}
	.st5{fill-rule:evenodd;clip-rule:evenodd;fill:none;stroke:#0C4B7F;stroke-width:0.824;stroke-miterlimit:10;}
	.st6{fill-rule:evenodd;clip-rule:evenodd;fill:none;stroke:#0C4B7F;stroke-width:0.2747;stroke-miterlimit:10;}
	.st7{fill:#FFFFFF;}
</style>
<g>
	<g>
		<g>
			<g>
				<path class="st0" d="M20.09,92.73c0.35,1.29,0.38,2.36,0.41,2.36h0.06c0,0,0.09-1.1,0.38-2.36l3.68-15.46h4.19l-5.76,22.36
					h-4.69L14.93,86.4c-0.38-1.45-0.57-2.93-0.57-2.93H14.3c0,0-0.19,1.48-0.57,2.93L10.3,99.63H5.61L0,77.26h4.19l3.53,15.46
					c0.28,1.26,0.38,2.36,0.38,2.36h0.06c0.03,0,0.06-1.07,0.41-2.36l4.03-15.46h3.53L20.09,92.73z"/>
				<path class="st0" d="M42.36,76.89c6.58,0,11.56,5.01,11.56,11.4c0,6.58-4.98,11.72-11.56,11.72S30.8,94.87,30.8,88.29
					C30.8,81.89,35.78,76.89,42.36,76.89z M42.36,96.29c4.09,0,7.37-3.4,7.37-8c0-4.41-3.28-7.68-7.37-7.68
					c-4.09,0-7.37,3.28-7.37,7.68C34.99,92.89,38.27,96.29,42.36,96.29z"/>
				<path class="st0" d="M58.05,77.26h7.21c2.42,0,3.53,0.19,4.5,0.63C72,78.9,73.42,81.04,73.42,84c0,2.68-1.42,5.17-3.78,6.11
					v0.06c0,0,0.32,0.31,0.76,1.1l4.6,8.35h-4.54l-4.44-8.35h-3.91v8.35h-4.06V77.26z M65.76,87.75c2.17,0,3.53-1.29,3.53-3.53
					c0-2.14-0.91-3.46-4.09-3.46h-3.09v6.99H65.76z"/>
				<path class="st0" d="M88.6,76.89c5.45,0,8.25,3.05,8.25,3.05l-1.95,3.02c0,0-2.55-2.36-6.11-2.36c-4.72,0-7.5,3.53-7.5,7.68
					c0,4.25,2.87,8,7.53,8c3.87,0,6.49-2.83,6.49-2.83l2.14,2.93c0,0-3.09,3.62-8.79,3.62c-6.83,0-11.56-5.07-11.56-11.65
					C77.1,81.86,82.01,76.89,88.6,76.89z"/>
				<path class="st0" d="M101.2,77.26h13.39v3.5h-9.32v5.86h7.53v3.5h-7.53v6.02h9.83v3.5H101.2V77.26z"/>
				<path class="st0" d="M119.81,93.89c0,0,2.43,2.36,5.57,2.36c1.7,0,3.24-0.88,3.24-2.71c0-4-10.55-3.31-10.55-10.17
					c0-3.72,3.21-6.49,7.5-6.49c4.41,0,6.68,2.39,6.68,2.39l-1.76,3.31c0,0-2.14-1.95-4.94-1.95c-1.89,0-3.37,1.1-3.37,2.68
					c0,3.97,10.52,2.99,10.52,10.14c0,3.56-2.71,6.55-7.37,6.55c-4.98,0-7.72-3.05-7.72-3.05L119.81,93.89z"/>
				<path class="st0" d="M141.38,80.76h-7.34v-3.5h18.74v3.5h-7.34v18.87h-4.06V80.76z"/>
				<path class="st0" d="M155.75,77.26h13.39v3.5h-9.32v5.86h7.53v3.5h-7.53v6.02h9.83v3.5h-13.89V77.26z"/>
				<path class="st0" d="M173.86,77.26h7.21c2.42,0,3.53,0.19,4.5,0.63c2.24,1.01,3.65,3.15,3.65,6.11c0,2.68-1.42,5.17-3.78,6.11
					v0.06c0,0,0.32,0.31,0.76,1.1l4.6,8.35h-4.54l-4.44-8.35h-3.91v8.35h-4.06V77.26z M181.57,87.75c2.17,0,3.53-1.29,3.53-3.53
					c0-2.14-0.91-3.46-4.09-3.46h-3.09v6.99H181.57z"/>
				<path class="st1" d="M15.79,120.96h1.31v-8.23h-1.31v-1.15h4.91c0.64,0,1.28,0.04,1.81,0.28c1.09,0.46,1.79,1.58,1.79,2.99
					c0,1.48-0.78,2.67-1.99,3.09c-0.49,0.18-1,0.22-1.58,0.22H18.6v2.79h1.33v1.16h-4.14V120.96z M20.56,116.94
					c0.48,0,0.85-0.07,1.18-0.21c0.67-0.3,1.06-0.97,1.06-1.88c0-0.85-0.34-1.48-0.94-1.79c-0.33-0.18-0.78-0.25-1.28-0.25H18.6
					v4.14H20.56z"/>
				<path class="st1" d="M28.49,112.73h-1.33v-1.15h4.15v1.15h-1.33v5.45c0,0.69,0.13,1.28,0.4,1.72c0.43,0.69,1.25,1.08,2.27,1.08
					c1,0,1.84-0.39,2.27-1.11c0.25-0.43,0.4-1.02,0.4-1.7v-5.44H34v-1.15h4.14v1.15h-1.31v5.47c0,1-0.27,1.91-0.73,2.57
					c-0.72,1.02-2,1.54-3.43,1.54c-1.49,0-2.75-0.57-3.46-1.54c-0.49-0.67-0.7-1.55-0.7-2.57V112.73z"/>
				<path class="st1" d="M41.33,120.96h1.31v-8.23h-1.31v-1.15h4.79c0.76,0,1.33,0.07,1.85,0.31c0.84,0.37,1.45,1.24,1.45,2.37
					c0,1.03-0.51,1.85-1.33,2.27v0.03c1.13,0.33,1.75,1.36,1.75,2.55c0,1.39-0.85,2.43-1.94,2.81c-0.51,0.16-1,0.19-1.58,0.19h-4.99
					V120.96z M46.35,116.02c0.96,0,1.55-0.66,1.55-1.61c0-0.61-0.24-1.13-0.69-1.39c-0.3-0.15-0.64-0.21-1.09-0.21h-1.99v3.21H46.35
					z M46.38,120.9c0.3,0,0.66-0.03,0.94-0.15c0.61-0.25,1-0.91,1-1.7c0-1.09-0.72-1.81-1.82-1.81h-2.36v3.66H46.38z"/>
				<path class="st1" d="M53.44,120.96h1.31v-8.15h-1.31v-1.22h4.14v1.22h-1.33v8.09h3.67v-1.7h1.31v2.93h-7.79V120.96z"/>
				<path class="st1" d="M64.39,120.96h1.31v-8.23h-1.31v-1.15h4.14v1.15H67.2v8.23h1.33v1.16h-4.14V120.96z"/>
				<path class="st1" d="M77.26,111.4c1.27,0,4.02,0.46,4.02,2.09v1.28h-1.39v-0.82c0-0.93-1.6-1.27-2.57-1.27
					c-2.26,0-3.91,1.66-3.91,4.05c0,2.49,1.7,4.27,4,4.27c0.75,0,2.63-0.27,2.63-1.24v-0.82h1.39v1.28c0,1.55-2.64,2.08-4.11,2.08
					c-3.17,0-5.45-2.43-5.45-5.51C71.87,113.7,74.22,111.4,77.26,111.4z"/>
				<path class="st1" d="M92.03,118.96v0.78c0,0.78,1,1.24,2.11,1.24c1.21,0,2.09-0.57,2.09-1.61c0-1.22-1.24-1.63-2.54-2.14
					c-1.39-0.52-2.81-1.12-2.81-2.99c0-1.99,1.6-2.84,3.37-2.84c1.58,0,3.2,0.6,3.2,1.75v1.24h-1.39v-0.73
					c0-0.61-0.94-0.94-1.81-0.94c-1.03,0-1.85,0.48-1.85,1.45c0,1.12,1.06,1.49,2.24,1.94c1.55,0.58,3.09,1.18,3.09,3.14
					c0,2.02-1.64,3.06-3.6,3.06c-1.64,0-3.48-0.73-3.48-2.24v-1.11H92.03z"/>
				<path class="st1" d="M106.57,111.4c1.27,0,4.02,0.46,4.02,2.09v1.28h-1.39v-0.82c0-0.93-1.6-1.27-2.57-1.27
					c-2.26,0-3.91,1.66-3.91,4.05c0,2.49,1.7,4.27,4,4.27c0.75,0,2.63-0.27,2.63-1.24v-0.82h1.39v1.28c0,1.55-2.64,2.08-4.11,2.08
					c-3.17,0-5.45-2.43-5.45-5.51C101.17,113.7,103.52,111.4,106.57,111.4z"/>
				<path class="st1" d="M114.29,120.96h1.31v-8.23h-1.31v-1.15h4.14v1.15h-1.33v3.51h5.47v-3.51h-1.33v-1.15h4.14v1.15h-1.31v8.23
					h1.31v1.16h-4.14v-1.16h1.33v-3.49h-5.47v3.49h1.33v1.16h-4.14V120.96z"/>
				<path class="st1" d="M134.13,111.4c3.05,0,5.42,2.34,5.42,5.38c0,3.11-2.37,5.52-5.42,5.52c-3.06,0-5.42-2.42-5.42-5.52
					C128.71,113.75,131.07,111.4,134.13,111.4z M134.13,120.97c2.14,0,3.87-1.82,3.87-4.2c0-2.3-1.73-4.06-3.87-4.06
					c-2.15,0-3.88,1.76-3.88,4.06C130.25,119.15,131.98,120.97,134.13,120.97z"/>
				<path class="st1" d="M148.35,111.4c3.05,0,5.42,2.34,5.42,5.38c0,3.11-2.37,5.52-5.42,5.52c-3.06,0-5.42-2.42-5.42-5.52
					C142.93,113.75,145.29,111.4,148.35,111.4z M148.35,120.97c2.14,0,3.87-1.82,3.87-4.2c0-2.3-1.73-4.06-3.87-4.06
					c-2.15,0-3.88,1.76-3.88,4.06C144.47,119.15,146.2,120.97,148.35,120.97z"/>
				<path class="st1" d="M157.13,120.96h1.31v-8.15h-1.31v-1.22h4.14v1.22h-1.33v8.09h3.67v-1.7h1.31v2.93h-7.79V120.96z"/>
				<path class="st1" d="M169.46,118.96v0.78c0,0.78,1,1.24,2.11,1.24c1.21,0,2.09-0.57,2.09-1.61c0-1.22-1.24-1.63-2.54-2.14
					c-1.39-0.52-2.81-1.12-2.81-2.99c0-1.99,1.6-2.84,3.37-2.84c1.58,0,3.2,0.6,3.2,1.75v1.24h-1.39v-0.73
					c0-0.61-0.94-0.94-1.81-0.94c-1.03,0-1.85,0.48-1.85,1.45c0,1.12,1.06,1.49,2.24,1.94c1.55,0.58,3.09,1.18,3.09,3.14
					c0,2.02-1.64,3.06-3.6,3.06c-1.64,0-3.48-0.73-3.48-2.24v-1.11H169.46z"/>
			</g>
		</g>
	</g>
	<g>
		<circle class="st2" cx="94.89" cy="34.85" r="34"/>
		<g>
			<path class="st3" d="M94.84,0.37c-0.36,0-0.72-0.59-1.08-0.58c-0.36,0.01-0.69,0.62-1.04,0.64c-0.36,0.02-0.76-0.54-1.11-0.51
				c-0.36,0.03-0.65,0.66-1,0.7c-0.36,0.04-0.79-0.5-1.14-0.44c-0.35,0.05-0.61,0.7-0.96,0.76c-0.35,0.07-0.82-0.45-1.17-0.37
				c-0.35,0.08-0.56,0.74-0.91,0.82c-0.35,0.09-0.85-0.39-1.19-0.3c-0.34,0.1-0.52,0.77-0.86,0.88c-0.34,0.11-0.87-0.34-1.2-0.22
				c-0.34,0.12-0.47,0.8-0.8,0.93c-0.33,0.13-0.89-0.29-1.22-0.15c-0.33,0.14-0.42,0.83-0.74,0.98c-0.32,0.15-0.9-0.23-1.22-0.07
				c-0.32,0.16-0.36,0.85-0.68,1.02c-0.31,0.17-0.92-0.17-1.22,0c-0.31,0.18-0.31,0.87-0.61,1.06c-0.3,0.19-0.92-0.12-1.22,0.08
				c-0.3,0.2-0.26,0.89-0.55,1.1c-0.29,0.21-0.93-0.06-1.21,0.15c-0.28,0.22-0.2,0.9-0.48,1.13c-0.28,0.22-0.93,0-1.2,0.23
				c-0.27,0.23-0.15,0.91-0.41,1.15c-0.26,0.24-0.93,0.05-1.19,0.3c-0.26,0.25-0.09,0.92-0.34,1.18c-0.25,0.26-0.93,0.11-1.17,0.37
				c-0.24,0.26-0.03,0.92-0.27,1.2c-0.23,0.27-0.92,0.17-1.14,0.44c-0.22,0.28,0.02,0.92-0.19,1.21c-0.22,0.28-0.9,0.22-1.11,0.51
				c-0.21,0.29,0.08,0.92-0.12,1.22c-0.2,0.3-0.89,0.28-1.08,0.58c-0.19,0.3,0.14,0.91-0.04,1.22c-0.18,0.31-0.87,0.33-1.04,0.65
				c-0.17,0.31,0.19,0.9,0.03,1.22c-0.16,0.32-0.85,0.38-1,0.71c-0.15,0.32,0.25,0.89,0.11,1.22c-0.14,0.33-0.82,0.44-0.95,0.77
				c-0.13,0.33,0.3,0.87,0.18,1.21c-0.12,0.34-0.79,0.49-0.9,0.83c-0.11,0.34,0.36,0.85,0.26,1.2c-0.1,0.34-0.76,0.53-0.85,0.88
				c-0.09,0.35,0.41,0.83,0.33,1.18c-0.08,0.35-0.73,0.58-0.79,0.93c-0.07,0.35,0.46,0.8,0.41,1.16c-0.05,0.35-0.69,0.62-0.73,0.98
				c-0.04,0.35,0.51,0.77,0.48,1.13c-0.03,0.35-0.65,0.67-0.67,1.02c-0.02,0.36,0.55,0.74,0.54,1.1c-0.01,0.36-0.61,0.7-0.61,1.06
				c0,0.36,0.6,0.71,0.61,1.06c0.01,0.36-0.57,0.74-0.54,1.1c0.02,0.36,0.64,0.67,0.67,1.02c0.03,0.36-0.52,0.78-0.48,1.13
				c0.04,0.36,0.68,0.63,0.73,0.98c0.05,0.35-0.47,0.81-0.41,1.16c0.07,0.35,0.72,0.58,0.79,0.93c0.08,0.35-0.42,0.83-0.33,1.18
				c0.09,0.35,0.75,0.54,0.85,0.88c0.1,0.34-0.37,0.86-0.26,1.2c0.11,0.34,0.78,0.49,0.9,0.83c0.12,0.34-0.31,0.88-0.18,1.21
				c0.13,0.33,0.81,0.44,0.95,0.77c0.14,0.33-0.26,0.9-0.11,1.22c0.15,0.32,0.84,0.39,1,0.71c0.16,0.32-0.2,0.91-0.03,1.22
				c0.17,0.31,0.86,0.34,1.04,0.65c0.18,0.31-0.15,0.92,0.04,1.22c0.19,0.3,0.88,0.28,1.08,0.58c0.2,0.3-0.09,0.93,0.12,1.22
				c0.21,0.29,0.9,0.23,1.11,0.51c0.22,0.28-0.03,0.93,0.19,1.21c0.22,0.28,0.91,0.17,1.14,0.44c0.23,0.27,0.02,0.93,0.27,1.2
				c0.24,0.26,0.92,0.12,1.17,0.37c0.25,0.26,0.08,0.93,0.34,1.18c0.26,0.25,0.92,0.06,1.19,0.3c0.26,0.24,0.14,0.92,0.41,1.15
				c0.27,0.23,0.92,0,1.2,0.23c0.28,0.22,0.19,0.91,0.48,1.13c0.28,0.22,0.92-0.05,1.21,0.15c0.29,0.21,0.25,0.9,0.55,1.1
				c0.3,0.2,0.92-0.11,1.22,0.08c0.3,0.19,0.3,0.88,0.61,1.06c0.31,0.18,0.91-0.17,1.22,0c0.31,0.17,0.36,0.86,0.68,1.02
				c0.32,0.16,0.9-0.22,1.22-0.07c0.32,0.15,0.41,0.84,0.74,0.98c0.33,0.14,0.88-0.28,1.22-0.15c0.33,0.13,0.46,0.81,0.8,0.93
				c0.34,0.12,0.86-0.33,1.2-0.22c0.34,0.11,0.51,0.78,0.85,0.88c0.34,0.1,0.84-0.38,1.19-0.3c0.35,0.09,0.56,0.75,0.91,0.82
				c0.35,0.08,0.82-0.43,1.17-0.37c0.35,0.07,0.6,0.71,0.96,0.76c0.35,0.05,0.79-0.48,1.14-0.44c0.35,0.04,0.65,0.67,1,0.7
				c0.35,0.03,0.76-0.53,1.11-0.51c0.36,0.02,0.69,0.63,1.04,0.64c0.36,0.01,0.72-0.58,1.08-0.58c0.36,0,0.72,0.59,1.08,0.58
				c0.36-0.01,0.69-0.62,1.04-0.64c0.36-0.02,0.76,0.54,1.11,0.51c0.36-0.03,0.65-0.66,1-0.7c0.36-0.04,0.79,0.5,1.14,0.44
				c0.35-0.05,0.61-0.7,0.96-0.76c0.35-0.07,0.82,0.45,1.17,0.37c0.35-0.08,0.56-0.74,0.91-0.82c0.35-0.09,0.85,0.39,1.19,0.3
				c0.34-0.1,0.52-0.77,0.86-0.88c0.34-0.11,0.87,0.34,1.2,0.22c0.34-0.12,0.47-0.8,0.8-0.93c0.33-0.13,0.89,0.29,1.22,0.15
				c0.33-0.14,0.42-0.83,0.74-0.98c0.32-0.15,0.9,0.23,1.22,0.07c0.32-0.16,0.36-0.85,0.68-1.02c0.31-0.17,0.92,0.17,1.22,0
				c0.31-0.18,0.31-0.87,0.61-1.06c0.3-0.19,0.92,0.12,1.22-0.08c0.3-0.2,0.26-0.89,0.55-1.1c0.29-0.21,0.93,0.06,1.21-0.15
				c0.28-0.22,0.2-0.9,0.48-1.13c0.28-0.22,0.93,0,1.2-0.23c0.27-0.23,0.15-0.91,0.41-1.15c0.26-0.24,0.93-0.05,1.19-0.3
				c0.26-0.25,0.09-0.92,0.34-1.18c0.25-0.26,0.93-0.11,1.17-0.37c0.24-0.26,0.03-0.92,0.27-1.2c0.23-0.27,0.92-0.17,1.14-0.44
				c0.22-0.28-0.02-0.92,0.19-1.21c0.22-0.28,0.9-0.22,1.11-0.51c0.21-0.29-0.08-0.92,0.12-1.22c0.2-0.3,0.89-0.28,1.08-0.58
				c0.19-0.3-0.14-0.91,0.04-1.22c0.18-0.31,0.87-0.33,1.04-0.65c0.17-0.31-0.19-0.9-0.03-1.22c0.16-0.32,0.85-0.38,1-0.71
				c0.15-0.32-0.25-0.89-0.11-1.22c0.14-0.33,0.82-0.44,0.95-0.77c0.13-0.33-0.3-0.87-0.18-1.21c0.12-0.34,0.79-0.49,0.9-0.83
				c0.11-0.34-0.36-0.85-0.26-1.2c0.1-0.34,0.76-0.53,0.85-0.88c0.09-0.35-0.41-0.83-0.33-1.18c0.08-0.35,0.73-0.58,0.79-0.93
				c0.07-0.35-0.46-0.8-0.41-1.16c0.05-0.35,0.69-0.62,0.73-0.98c0.04-0.35-0.51-0.77-0.48-1.13c0.03-0.35,0.65-0.67,0.67-1.02
				c0.02-0.36-0.55-0.74-0.54-1.1c0.01-0.36,0.61-0.7,0.61-1.06c0-0.36-0.6-0.71-0.61-1.06c-0.01-0.36,0.57-0.74,0.54-1.1
				c-0.02-0.36-0.64-0.67-0.67-1.02c-0.03-0.36,0.52-0.78,0.48-1.13c-0.04-0.36-0.68-0.63-0.73-0.98c-0.05-0.35,0.47-0.81,0.41-1.16
				c-0.07-0.35-0.72-0.58-0.79-0.93c-0.08-0.35,0.42-0.83,0.33-1.18c-0.09-0.35-0.75-0.54-0.85-0.88c-0.1-0.34,0.37-0.86,0.26-1.2
				c-0.11-0.34-0.78-0.49-0.9-0.83c-0.12-0.34,0.31-0.88,0.18-1.21c-0.13-0.33-0.81-0.44-0.95-0.77c-0.14-0.33,0.26-0.9,0.11-1.22
				c-0.15-0.32-0.84-0.39-1-0.71c-0.16-0.32,0.2-0.91,0.03-1.22c-0.17-0.31-0.86-0.34-1.04-0.65c-0.18-0.31,0.15-0.92-0.04-1.22
				c-0.19-0.3-0.88-0.28-1.08-0.58c-0.2-0.3,0.09-0.93-0.12-1.22c-0.21-0.29-0.9-0.23-1.11-0.51c-0.22-0.28,0.03-0.93-0.19-1.21
				c-0.22-0.28-0.91-0.17-1.14-0.44c-0.23-0.27-0.02-0.93-0.27-1.2c-0.24-0.26-0.92-0.12-1.17-0.37c-0.25-0.26-0.08-0.93-0.34-1.18
				c-0.26-0.25-0.92-0.06-1.19-0.3c-0.26-0.24-0.14-0.92-0.41-1.15c-0.27-0.23-0.92,0-1.2-0.23c-0.28-0.22-0.19-0.91-0.48-1.13
				c-0.28-0.22-0.92,0.05-1.21-0.15c-0.29-0.21-0.25-0.9-0.55-1.1c-0.3-0.2-0.92,0.11-1.22-0.08c-0.3-0.19-0.3-0.88-0.61-1.06
				c-0.31-0.18-0.91,0.17-1.22,0c-0.31-0.17-0.36-0.86-0.68-1.02c-0.32-0.16-0.9,0.22-1.22,0.07c-0.32-0.15-0.41-0.84-0.74-0.98
				c-0.33-0.14-0.88,0.28-1.22,0.15c-0.33-0.13-0.46-0.81-0.8-0.93c-0.34-0.12-0.86,0.33-1.2,0.22c-0.34-0.11-0.51-0.78-0.85-0.88
				c-0.34-0.1-0.84,0.38-1.19,0.3c-0.35-0.09-0.56-0.75-0.91-0.82c-0.35-0.08-0.82,0.43-1.17,0.37c-0.35-0.07-0.6-0.71-0.96-0.76
				c-0.35-0.05-0.79,0.48-1.14,0.44c-0.35-0.04-0.65-0.67-1-0.7c-0.35-0.03-0.76,0.53-1.11,0.51c-0.36-0.02-0.69-0.63-1.04-0.64
				C95.57-0.22,95.2,0.37,94.84,0.37z M94.84,69.15c-0.35,0-0.69-0.6-1.04-0.61c-0.35-0.01-0.73,0.57-1.07,0.54
				c-0.35-0.02-0.65-0.64-1-0.67c-0.35-0.03-0.76,0.52-1.1,0.48c-0.35-0.04-0.61-0.68-0.96-0.73c-0.35-0.05-0.79,0.47-1.13,0.41
				c-0.34-0.06-0.57-0.71-0.91-0.79c-0.34-0.07-0.82,0.42-1.16,0.34c-0.34-0.09-0.52-0.75-0.86-0.84c-0.34-0.1-0.84,0.37-1.17,0.27
				c-0.33-0.11-0.48-0.78-0.8-0.9c-0.33-0.12-0.86,0.32-1.19,0.19c-0.33-0.13-0.43-0.81-0.75-0.94c-0.32-0.14-0.88,0.26-1.2,0.12
				c-0.32-0.15-0.38-0.83-0.69-0.99c-0.31-0.16-0.9,0.21-1.2,0.04c-0.31-0.17-0.32-0.85-0.63-1.03c-0.3-0.18-0.91,0.15-1.2-0.03
				c-0.3-0.18-0.27-0.87-0.56-1.07c-0.29-0.19-0.91,0.1-1.2-0.1c-0.28-0.2-0.22-0.89-0.49-1.1c-0.28-0.21-0.92,0.04-1.19-0.18
				c-0.27-0.22-0.16-0.9-0.43-1.13c-0.27-0.23-0.92-0.01-1.18-0.25c-0.26-0.24-0.11-0.91-0.36-1.15c-0.25-0.24-0.92-0.07-1.16-0.32
				c-0.24-0.25-0.05-0.91-0.29-1.17c-0.24-0.26-0.91-0.13-1.14-0.39c-0.23-0.26,0.01-0.91-0.21-1.18c-0.22-0.27-0.9-0.18-1.11-0.46
				c-0.21-0.28,0.06-0.91-0.14-1.2c-0.2-0.28-0.89-0.24-1.08-0.53c-0.19-0.29,0.12-0.9-0.07-1.2C66,52.3,65.31,52.3,65.13,52
				c-0.17-0.3,0.17-0.9,0.01-1.2c-0.17-0.31-0.85-0.34-1.01-0.66c-0.16-0.31,0.23-0.88,0.08-1.2c-0.15-0.32-0.83-0.4-0.97-0.72
				c-0.14-0.32,0.28-0.87,0.16-1.19c-0.13-0.32-0.8-0.45-0.92-0.78c-0.12-0.33,0.34-0.85,0.23-1.18c-0.11-0.33-0.77-0.5-0.87-0.83
				c-0.1-0.34,0.39-0.83,0.3-1.16c-0.08-0.34-0.74-0.54-0.82-0.88c-0.07-0.34,0.44-0.8,0.37-1.14c-0.06-0.34-0.71-0.59-0.76-0.93
				c-0.05-0.34,0.49-0.77,0.44-1.12c-0.04-0.35-0.67-0.63-0.7-0.98c-0.03-0.35,0.53-0.74,0.51-1.09c-0.02-0.35-0.63-0.67-0.64-1.02
				c-0.01-0.35,0.58-0.71,0.58-1.06c0-0.35-0.59-0.71-0.58-1.06c0.01-0.35,0.62-0.67,0.64-1.02c0.02-0.35-0.54-0.74-0.51-1.09
				c0.03-0.35,0.66-0.63,0.7-0.98c0.04-0.35-0.5-0.77-0.44-1.12c0.05-0.35,0.7-0.59,0.76-0.93c0.06-0.34-0.45-0.8-0.37-1.14
				c0.07-0.34,0.73-0.55,0.82-0.89c0.09-0.34-0.4-0.83-0.3-1.17c0.1-0.34,0.76-0.5,0.87-0.83c0.11-0.33-0.35-0.85-0.23-1.18
				c0.12-0.33,0.79-0.45,0.92-0.78c0.13-0.33-0.29-0.87-0.16-1.19c0.14-0.32,0.82-0.4,0.97-0.72c0.15-0.32-0.24-0.89-0.08-1.2
				c0.16-0.31,0.84-0.35,1.01-0.66c0.17-0.31-0.18-0.9-0.01-1.2c0.18-0.3,0.86-0.3,1.05-0.59c0.18-0.3-0.13-0.91,0.07-1.2
				c0.19-0.29,0.88-0.24,1.08-0.53c0.2-0.28-0.07-0.92,0.14-1.2c0.21-0.28,0.89-0.19,1.11-0.46c0.22-0.27-0.01-0.92,0.21-1.18
				c0.23-0.27,0.9-0.13,1.14-0.39c0.24-0.26,0.04-0.92,0.29-1.17c0.24-0.25,0.91-0.08,1.16-0.32c0.25-0.24,0.1-0.91,0.36-1.15
				c0.26-0.24,0.91-0.02,1.18-0.25c0.26-0.23,0.15-0.91,0.43-1.13c0.27-0.22,0.91,0.03,1.19-0.18c0.28-0.21,0.21-0.9,0.49-1.1
				c0.28-0.2,0.91,0.09,1.2-0.1c0.29-0.19,0.26-0.88,0.56-1.06c0.3-0.18,0.9,0.15,1.2-0.03c0.3-0.17,0.32-0.86,0.63-1.03
				c0.31-0.17,0.89,0.2,1.2,0.04c0.31-0.16,0.37-0.84,0.69-0.99c0.32-0.15,0.88,0.26,1.2,0.12c0.32-0.14,0.42-0.82,0.75-0.94
				c0.32-0.13,0.86,0.31,1.19,0.19c0.33-0.12,0.47-0.79,0.8-0.89c0.33-0.11,0.84,0.36,1.17,0.27c0.34-0.1,0.52-0.76,0.86-0.84
				c0.34-0.08,0.81,0.41,1.16,0.34c0.34-0.07,0.57-0.72,0.91-0.79c0.34-0.06,0.79,0.46,1.13,0.41c0.34-0.05,0.61-0.69,0.96-0.73
				c0.35-0.04,0.76,0.51,1.1,0.48c0.35-0.03,0.65-0.65,1-0.67c0.35-0.02,0.72,0.56,1.07,0.54c0.35-0.01,0.69-0.61,1.04-0.61
				c0.35,0,0.69,0.6,1.04,0.61c0.35,0.01,0.73-0.57,1.07-0.54c0.35,0.02,0.65,0.64,1,0.67c0.35,0.03,0.76-0.52,1.1-0.48
				c0.35,0.04,0.61,0.68,0.96,0.73c0.35,0.05,0.79-0.47,1.13-0.41c0.34,0.06,0.57,0.71,0.91,0.79c0.34,0.07,0.82-0.42,1.16-0.34
				c0.34,0.09,0.52,0.75,0.86,0.84c0.34,0.1,0.84-0.37,1.17-0.27c0.33,0.11,0.48,0.78,0.8,0.9c0.33,0.12,0.86-0.32,1.19-0.19
				c0.33,0.13,0.43,0.81,0.75,0.94c0.32,0.14,0.88-0.26,1.2-0.12c0.32,0.15,0.38,0.83,0.69,0.99c0.31,0.16,0.9-0.21,1.2-0.04
				c0.31,0.17,0.32,0.85,0.63,1.03c0.3,0.18,0.91-0.15,1.2,0.03c0.3,0.18,0.27,0.87,0.56,1.07c0.29,0.19,0.91-0.1,1.2,0.1
				c0.28,0.2,0.22,0.89,0.49,1.1c0.28,0.21,0.92-0.04,1.19,0.18c0.27,0.22,0.16,0.9,0.43,1.13c0.27,0.23,0.92,0.01,1.18,0.25
				c0.26,0.24,0.11,0.91,0.36,1.15c0.25,0.24,0.92,0.07,1.16,0.32c0.24,0.25,0.05,0.91,0.29,1.17c0.24,0.26,0.91,0.13,1.14,0.39
				c0.23,0.26-0.01,0.91,0.21,1.18c0.22,0.27,0.9,0.18,1.11,0.46c0.21,0.28-0.06,0.91,0.14,1.2c0.2,0.28,0.89,0.24,1.08,0.53
				c0.19,0.29-0.12,0.9,0.07,1.2c0.18,0.3,0.87,0.29,1.05,0.59c0.17,0.3-0.17,0.9-0.01,1.2c0.17,0.31,0.85,0.34,1.01,0.66
				c0.16,0.31-0.23,0.88-0.08,1.2c0.15,0.32,0.83,0.4,0.97,0.72c0.14,0.32-0.28,0.87-0.16,1.19c0.13,0.32,0.8,0.45,0.92,0.78
				c0.12,0.33-0.34,0.85-0.23,1.18c0.11,0.33,0.77,0.5,0.87,0.83c0.1,0.34-0.39,0.83-0.3,1.16c0.08,0.34,0.74,0.54,0.82,0.88
				c0.07,0.34-0.44,0.8-0.37,1.14c0.06,0.34,0.71,0.59,0.76,0.93c0.05,0.34-0.49,0.77-0.44,1.12c0.04,0.35,0.67,0.63,0.7,0.98
				c0.03,0.35-0.53,0.74-0.51,1.09c0.02,0.35,0.63,0.67,0.64,1.02c0.01,0.35-0.58,0.71-0.58,1.06c0,0.35,0.59,0.71,0.58,1.06
				c-0.01,0.35-0.62,0.67-0.64,1.02c-0.02,0.35,0.54,0.74,0.51,1.09c-0.03,0.35-0.66,0.63-0.7,0.98c-0.04,0.35,0.5,0.77,0.44,1.12
				c-0.05,0.35-0.7,0.59-0.76,0.93c-0.06,0.34,0.45,0.8,0.37,1.14c-0.07,0.34-0.73,0.55-0.82,0.89c-0.09,0.34,0.4,0.83,0.3,1.17
				c-0.1,0.34-0.76,0.5-0.87,0.83c-0.11,0.33,0.35,0.85,0.23,1.18c-0.12,0.33-0.79,0.45-0.92,0.78c-0.13,0.33,0.29,0.87,0.16,1.19
				c-0.14,0.32-0.82,0.4-0.97,0.72c-0.15,0.32,0.24,0.89,0.08,1.2c-0.16,0.31-0.84,0.35-1.01,0.66c-0.17,0.31,0.18,0.9,0.01,1.2
				c-0.18,0.3-0.86,0.3-1.05,0.59c-0.18,0.3,0.13,0.91-0.07,1.2c-0.19,0.29-0.88,0.24-1.08,0.53c-0.2,0.28,0.07,0.92-0.14,1.2
				c-0.21,0.28-0.89,0.19-1.11,0.46c-0.22,0.27,0.01,0.92-0.21,1.18c-0.23,0.27-0.9,0.13-1.14,0.39c-0.24,0.26-0.04,0.92-0.29,1.17
				c-0.24,0.25-0.91,0.08-1.16,0.32c-0.25,0.24-0.1,0.91-0.36,1.15c-0.26,0.24-0.91,0.02-1.18,0.25c-0.26,0.23-0.15,0.91-0.43,1.13
				c-0.27,0.22-0.91-0.03-1.19,0.18c-0.28,0.21-0.21,0.9-0.49,1.1c-0.28,0.2-0.91-0.09-1.2,0.1c-0.29,0.19-0.26,0.88-0.56,1.06
				c-0.3,0.18-0.9-0.15-1.2,0.03c-0.3,0.17-0.32,0.86-0.63,1.03c-0.31,0.17-0.89-0.2-1.2-0.04c-0.31,0.16-0.37,0.84-0.69,0.99
				c-0.32,0.15-0.88-0.26-1.2-0.12c-0.32,0.14-0.42,0.82-0.75,0.94c-0.32,0.13-0.86-0.31-1.19-0.19c-0.33,0.12-0.47,0.79-0.8,0.89
				c-0.33,0.11-0.84-0.36-1.17-0.27c-0.34,0.1-0.52,0.76-0.86,0.84c-0.34,0.08-0.81-0.41-1.16-0.34c-0.34,0.07-0.57,0.72-0.91,0.79
				c-0.34,0.06-0.79-0.46-1.13-0.41c-0.34,0.05-0.61,0.69-0.96,0.73c-0.35,0.04-0.76-0.51-1.1-0.48c-0.35,0.03-0.65,0.65-1,0.67
				c-0.35,0.02-0.72-0.56-1.07-0.54C95.53,68.55,95.19,69.15,94.84,69.15z"/>
			<path class="st4" d="M94.84,0.37c-0.36,0-0.72-0.59-1.08-0.58c-0.36,0.01-0.69,0.62-1.04,0.64c-0.36,0.02-0.76-0.54-1.11-0.51
				c-0.36,0.03-0.65,0.66-1,0.7c-0.36,0.04-0.79-0.5-1.14-0.44c-0.35,0.05-0.61,0.7-0.96,0.76c-0.35,0.07-0.82-0.45-1.17-0.37
				c-0.35,0.08-0.56,0.74-0.91,0.82c-0.35,0.09-0.85-0.39-1.19-0.3c-0.34,0.1-0.52,0.77-0.86,0.88c-0.34,0.11-0.87-0.34-1.2-0.22
				c-0.34,0.12-0.47,0.8-0.8,0.93c-0.33,0.13-0.89-0.29-1.22-0.15c-0.33,0.14-0.42,0.83-0.74,0.98c-0.32,0.15-0.9-0.23-1.22-0.07
				c-0.32,0.16-0.36,0.85-0.68,1.02c-0.31,0.17-0.92-0.17-1.22,0c-0.31,0.18-0.31,0.87-0.61,1.06c-0.3,0.19-0.92-0.12-1.22,0.08
				c-0.3,0.2-0.26,0.89-0.55,1.1c-0.29,0.21-0.93-0.06-1.21,0.15c-0.28,0.22-0.2,0.9-0.48,1.13c-0.28,0.22-0.93,0-1.2,0.23
				c-0.27,0.23-0.15,0.91-0.41,1.15c-0.26,0.24-0.93,0.05-1.19,0.3c-0.26,0.25-0.09,0.92-0.34,1.18c-0.25,0.26-0.93,0.11-1.17,0.37
				c-0.24,0.26-0.03,0.92-0.27,1.2c-0.23,0.27-0.92,0.17-1.14,0.44c-0.22,0.28,0.02,0.92-0.19,1.21c-0.22,0.28-0.9,0.22-1.11,0.51
				c-0.21,0.29,0.08,0.92-0.12,1.22c-0.2,0.3-0.89,0.28-1.08,0.58c-0.19,0.3,0.14,0.91-0.04,1.22c-0.18,0.31-0.87,0.33-1.04,0.65
				c-0.17,0.31,0.19,0.9,0.03,1.22c-0.16,0.32-0.85,0.38-1,0.71c-0.15,0.32,0.25,0.89,0.11,1.22c-0.14,0.33-0.82,0.44-0.95,0.77
				c-0.13,0.33,0.3,0.87,0.18,1.21c-0.12,0.34-0.79,0.49-0.9,0.83c-0.11,0.34,0.36,0.85,0.26,1.2c-0.1,0.34-0.76,0.53-0.85,0.88
				c-0.09,0.35,0.41,0.83,0.33,1.18c-0.08,0.35-0.73,0.58-0.79,0.93c-0.07,0.35,0.46,0.8,0.41,1.16c-0.05,0.35-0.69,0.62-0.73,0.98
				c-0.04,0.35,0.51,0.77,0.48,1.13c-0.03,0.35-0.65,0.67-0.67,1.02c-0.02,0.36,0.55,0.74,0.54,1.1c-0.01,0.36-0.61,0.7-0.61,1.06
				c0,0.36,0.6,0.71,0.61,1.06c0.01,0.36-0.57,0.74-0.54,1.1c0.02,0.36,0.64,0.67,0.67,1.02c0.03,0.36-0.52,0.78-0.48,1.13
				c0.04,0.36,0.68,0.63,0.73,0.98c0.05,0.35-0.47,0.81-0.41,1.16c0.07,0.35,0.72,0.58,0.79,0.93c0.08,0.35-0.42,0.83-0.33,1.18
				c0.09,0.35,0.75,0.54,0.85,0.88c0.1,0.34-0.37,0.86-0.26,1.2c0.11,0.34,0.78,0.49,0.9,0.83c0.12,0.34-0.31,0.88-0.18,1.21
				c0.13,0.33,0.81,0.44,0.95,0.77c0.14,0.33-0.26,0.9-0.11,1.22c0.15,0.32,0.84,0.39,1,0.71c0.16,0.32-0.2,0.91-0.03,1.22
				c0.17,0.31,0.86,0.34,1.04,0.65c0.18,0.31-0.15,0.92,0.04,1.22c0.19,0.3,0.88,0.28,1.08,0.58c0.2,0.3-0.09,0.93,0.12,1.22
				c0.21,0.29,0.9,0.23,1.11,0.51c0.22,0.28-0.03,0.93,0.19,1.21c0.22,0.28,0.91,0.17,1.14,0.44c0.23,0.27,0.02,0.93,0.27,1.2
				c0.24,0.26,0.92,0.12,1.17,0.37c0.25,0.26,0.08,0.93,0.34,1.18c0.26,0.25,0.92,0.06,1.19,0.3c0.26,0.24,0.14,0.92,0.41,1.15
				c0.27,0.23,0.92,0,1.2,0.23c0.28,0.22,0.19,0.91,0.48,1.13c0.28,0.22,0.92-0.05,1.21,0.15c0.29,0.21,0.25,0.9,0.55,1.1
				c0.3,0.2,0.92-0.11,1.22,0.08c0.3,0.19,0.3,0.88,0.61,1.06c0.31,0.18,0.91-0.17,1.22,0c0.31,0.17,0.36,0.86,0.68,1.02
				c0.32,0.16,0.9-0.22,1.22-0.07c0.32,0.15,0.41,0.84,0.74,0.98c0.33,0.14,0.88-0.28,1.22-0.15c0.33,0.13,0.46,0.81,0.8,0.93
				c0.34,0.12,0.86-0.33,1.2-0.22c0.34,0.11,0.51,0.78,0.85,0.88c0.34,0.1,0.84-0.38,1.19-0.3c0.35,0.09,0.56,0.75,0.91,0.82
				c0.35,0.08,0.82-0.43,1.17-0.37c0.35,0.07,0.6,0.71,0.96,0.76c0.35,0.05,0.79-0.48,1.14-0.44c0.35,0.04,0.65,0.67,1,0.7
				c0.35,0.03,0.76-0.53,1.11-0.51c0.36,0.02,0.69,0.63,1.04,0.64c0.36,0.01,0.72-0.58,1.08-0.58c0.36,0,0.72,0.59,1.08,0.58
				c0.36-0.01,0.69-0.62,1.04-0.64c0.36-0.02,0.76,0.54,1.11,0.51c0.36-0.03,0.65-0.66,1-0.7c0.36-0.04,0.79,0.5,1.14,0.44
				c0.35-0.05,0.61-0.7,0.96-0.76c0.35-0.07,0.82,0.45,1.17,0.37c0.35-0.08,0.56-0.74,0.91-0.82c0.35-0.09,0.85,0.39,1.19,0.3
				c0.34-0.1,0.52-0.77,0.86-0.88c0.34-0.11,0.87,0.34,1.2,0.22c0.34-0.12,0.47-0.8,0.8-0.93c0.33-0.13,0.89,0.29,1.22,0.15
				c0.33-0.14,0.42-0.83,0.74-0.98c0.32-0.15,0.9,0.23,1.22,0.07c0.32-0.16,0.36-0.85,0.68-1.02c0.31-0.17,0.92,0.17,1.22,0
				c0.31-0.18,0.31-0.87,0.61-1.06c0.3-0.19,0.92,0.12,1.22-0.08c0.3-0.2,0.26-0.89,0.55-1.1c0.29-0.21,0.93,0.06,1.21-0.15
				c0.28-0.22,0.2-0.9,0.48-1.13c0.28-0.22,0.93,0,1.2-0.23c0.27-0.23,0.15-0.91,0.41-1.15c0.26-0.24,0.93-0.05,1.19-0.3
				c0.26-0.25,0.09-0.92,0.34-1.18c0.25-0.26,0.93-0.11,1.17-0.37c0.24-0.26,0.03-0.92,0.27-1.2c0.23-0.27,0.92-0.17,1.14-0.44
				c0.22-0.28-0.02-0.92,0.19-1.21c0.22-0.28,0.9-0.22,1.11-0.51c0.21-0.29-0.08-0.92,0.12-1.22c0.2-0.3,0.89-0.28,1.08-0.58
				c0.19-0.3-0.14-0.91,0.04-1.22c0.18-0.31,0.87-0.33,1.04-0.65c0.17-0.31-0.19-0.9-0.03-1.22c0.16-0.32,0.85-0.38,1-0.71
				c0.15-0.32-0.25-0.89-0.11-1.22c0.14-0.33,0.82-0.44,0.95-0.77c0.13-0.33-0.3-0.87-0.18-1.21c0.12-0.34,0.79-0.49,0.9-0.83
				c0.11-0.34-0.36-0.85-0.26-1.2c0.1-0.34,0.76-0.53,0.85-0.88c0.09-0.35-0.41-0.83-0.33-1.18c0.08-0.35,0.73-0.58,0.79-0.93
				c0.07-0.35-0.46-0.8-0.41-1.16c0.05-0.35,0.69-0.62,0.73-0.98c0.04-0.35-0.51-0.77-0.48-1.13c0.03-0.35,0.65-0.67,0.67-1.02
				c0.02-0.36-0.55-0.74-0.54-1.1c0.01-0.36,0.61-0.7,0.61-1.06c0-0.36-0.6-0.71-0.61-1.06c-0.01-0.36,0.57-0.74,0.54-1.1
				c-0.02-0.36-0.64-0.67-0.67-1.02c-0.03-0.36,0.52-0.78,0.48-1.13c-0.04-0.36-0.68-0.63-0.73-0.98c-0.05-0.35,0.47-0.81,0.41-1.16
				c-0.07-0.35-0.72-0.58-0.79-0.93c-0.08-0.35,0.42-0.83,0.33-1.18c-0.09-0.35-0.75-0.54-0.85-0.88c-0.1-0.34,0.37-0.86,0.26-1.2
				c-0.11-0.34-0.78-0.49-0.9-0.83c-0.12-0.34,0.31-0.88,0.18-1.21c-0.13-0.33-0.81-0.44-0.95-0.77c-0.14-0.33,0.26-0.9,0.11-1.22
				c-0.15-0.32-0.84-0.39-1-0.71c-0.16-0.32,0.2-0.91,0.03-1.22c-0.17-0.31-0.86-0.34-1.04-0.65c-0.18-0.31,0.15-0.92-0.04-1.22
				c-0.19-0.3-0.88-0.28-1.08-0.58c-0.2-0.3,0.09-0.93-0.12-1.22c-0.21-0.29-0.9-0.23-1.11-0.51c-0.22-0.28,0.03-0.93-0.19-1.21
				c-0.22-0.28-0.91-0.17-1.14-0.44c-0.23-0.27-0.02-0.93-0.27-1.2c-0.24-0.26-0.92-0.12-1.17-0.37c-0.25-0.26-0.08-0.93-0.34-1.18
				c-0.26-0.25-0.92-0.06-1.19-0.3c-0.26-0.24-0.14-0.92-0.41-1.15c-0.27-0.23-0.92,0-1.2-0.23c-0.28-0.22-0.19-0.91-0.48-1.13
				c-0.28-0.22-0.92,0.05-1.21-0.15c-0.29-0.21-0.25-0.9-0.55-1.1c-0.3-0.2-0.92,0.11-1.22-0.08c-0.3-0.19-0.3-0.88-0.61-1.06
				c-0.31-0.18-0.91,0.17-1.22,0c-0.31-0.17-0.36-0.86-0.68-1.02c-0.32-0.16-0.9,0.22-1.22,0.07c-0.32-0.15-0.41-0.84-0.74-0.98
				c-0.33-0.14-0.88,0.28-1.22,0.15c-0.33-0.13-0.46-0.81-0.8-0.93c-0.34-0.12-0.86,0.33-1.2,0.22c-0.34-0.11-0.51-0.78-0.85-0.88
				c-0.34-0.1-0.84,0.38-1.19,0.3c-0.35-0.09-0.56-0.75-0.91-0.82c-0.35-0.08-0.82,0.43-1.17,0.37c-0.35-0.07-0.6-0.71-0.96-0.76
				c-0.35-0.05-0.79,0.48-1.14,0.44c-0.35-0.04-0.65-0.67-1-0.7c-0.35-0.03-0.76,0.53-1.11,0.51c-0.36-0.02-0.69-0.63-1.04-0.64
				C95.57-0.22,95.2,0.37,94.84,0.37z M94.84,69.15c-0.35,0-0.69-0.6-1.04-0.61c-0.35-0.01-0.73,0.57-1.07,0.54
				c-0.35-0.02-0.65-0.64-1-0.67c-0.35-0.03-0.76,0.52-1.1,0.48c-0.35-0.04-0.61-0.68-0.96-0.73c-0.35-0.05-0.79,0.47-1.13,0.41
				c-0.34-0.06-0.57-0.71-0.91-0.79c-0.34-0.07-0.82,0.42-1.16,0.34c-0.34-0.09-0.52-0.75-0.86-0.84c-0.34-0.1-0.84,0.37-1.17,0.27
				c-0.33-0.11-0.48-0.78-0.8-0.9c-0.33-0.12-0.86,0.32-1.19,0.19c-0.33-0.13-0.43-0.81-0.75-0.94c-0.32-0.14-0.88,0.26-1.2,0.12
				c-0.32-0.15-0.38-0.83-0.69-0.99c-0.31-0.16-0.9,0.21-1.2,0.04c-0.31-0.17-0.32-0.85-0.63-1.03c-0.3-0.18-0.91,0.15-1.2-0.03
				c-0.3-0.18-0.27-0.87-0.56-1.07c-0.29-0.19-0.91,0.1-1.2-0.1c-0.28-0.2-0.22-0.89-0.49-1.1c-0.28-0.21-0.92,0.04-1.19-0.18
				c-0.27-0.22-0.16-0.9-0.43-1.13c-0.27-0.23-0.92-0.01-1.18-0.25c-0.26-0.24-0.11-0.91-0.36-1.15c-0.25-0.24-0.92-0.07-1.16-0.32
				c-0.24-0.25-0.05-0.91-0.29-1.17c-0.24-0.26-0.91-0.13-1.14-0.39c-0.23-0.26,0.01-0.91-0.21-1.18c-0.22-0.27-0.9-0.18-1.11-0.46
				c-0.21-0.28,0.06-0.91-0.14-1.2c-0.2-0.28-0.89-0.24-1.08-0.53c-0.19-0.29,0.12-0.9-0.07-1.2C66,52.3,65.31,52.3,65.13,52
				c-0.17-0.3,0.17-0.9,0.01-1.2c-0.17-0.31-0.85-0.34-1.01-0.66c-0.16-0.31,0.23-0.88,0.08-1.2c-0.15-0.32-0.83-0.4-0.97-0.72
				c-0.14-0.32,0.28-0.87,0.16-1.19c-0.13-0.32-0.8-0.45-0.92-0.78c-0.12-0.33,0.34-0.85,0.23-1.18c-0.11-0.33-0.77-0.5-0.87-0.83
				c-0.1-0.34,0.39-0.83,0.3-1.16c-0.08-0.34-0.74-0.54-0.82-0.88c-0.07-0.34,0.44-0.8,0.37-1.14c-0.06-0.34-0.71-0.59-0.76-0.93
				c-0.05-0.34,0.49-0.77,0.44-1.12c-0.04-0.35-0.67-0.63-0.7-0.98c-0.03-0.35,0.53-0.74,0.51-1.09c-0.02-0.35-0.63-0.67-0.64-1.02
				c-0.01-0.35,0.58-0.71,0.58-1.06c0-0.35-0.59-0.71-0.58-1.06c0.01-0.35,0.62-0.67,0.64-1.02c0.02-0.35-0.54-0.74-0.51-1.09
				c0.03-0.35,0.66-0.63,0.7-0.98c0.04-0.35-0.5-0.77-0.44-1.12c0.05-0.35,0.7-0.59,0.76-0.93c0.06-0.34-0.45-0.8-0.37-1.14
				c0.07-0.34,0.73-0.55,0.82-0.89c0.09-0.34-0.4-0.83-0.3-1.17c0.1-0.34,0.76-0.5,0.87-0.83c0.11-0.33-0.35-0.85-0.23-1.18
				c0.12-0.33,0.79-0.45,0.92-0.78c0.13-0.33-0.29-0.87-0.16-1.19c0.14-0.32,0.82-0.4,0.97-0.72c0.15-0.32-0.24-0.89-0.08-1.2
				c0.16-0.31,0.84-0.35,1.01-0.66c0.17-0.31-0.18-0.9-0.01-1.2c0.18-0.3,0.86-0.3,1.05-0.59c0.18-0.3-0.13-0.91,0.07-1.2
				c0.19-0.29,0.88-0.24,1.08-0.53c0.2-0.28-0.07-0.92,0.14-1.2c0.21-0.28,0.89-0.19,1.11-0.46c0.22-0.27-0.01-0.92,0.21-1.18
				c0.23-0.27,0.9-0.13,1.14-0.39c0.24-0.26,0.04-0.92,0.29-1.17c0.24-0.25,0.91-0.08,1.16-0.32c0.25-0.24,0.1-0.91,0.36-1.15
				c0.26-0.24,0.91-0.02,1.18-0.25c0.26-0.23,0.15-0.91,0.43-1.13c0.27-0.22,0.91,0.03,1.19-0.18c0.28-0.21,0.21-0.9,0.49-1.1
				c0.28-0.2,0.91,0.09,1.2-0.1c0.29-0.19,0.26-0.88,0.56-1.06c0.3-0.18,0.9,0.15,1.2-0.03c0.3-0.17,0.32-0.86,0.63-1.03
				c0.31-0.17,0.89,0.2,1.2,0.04c0.31-0.16,0.37-0.84,0.69-0.99c0.32-0.15,0.88,0.26,1.2,0.12c0.32-0.14,0.42-0.82,0.75-0.94
				c0.32-0.13,0.86,0.31,1.19,0.19c0.33-0.12,0.47-0.79,0.8-0.89c0.33-0.11,0.84,0.36,1.17,0.27c0.34-0.1,0.52-0.76,0.86-0.84
				c0.34-0.08,0.81,0.41,1.16,0.34c0.34-0.07,0.57-0.72,0.91-0.79c0.34-0.06,0.79,0.46,1.13,0.41c0.34-0.05,0.61-0.69,0.96-0.73
				c0.35-0.04,0.76,0.51,1.1,0.48c0.35-0.03,0.65-0.65,1-0.67c0.35-0.02,0.72,0.56,1.07,0.54c0.35-0.01,0.69-0.61,1.04-0.61
				c0.35,0,0.69,0.6,1.04,0.61c0.35,0.01,0.73-0.57,1.07-0.54c0.35,0.02,0.65,0.64,1,0.67c0.35,0.03,0.76-0.52,1.1-0.48
				c0.35,0.04,0.61,0.68,0.96,0.73c0.35,0.05,0.79-0.47,1.13-0.41c0.34,0.06,0.57,0.71,0.91,0.79c0.34,0.07,0.82-0.42,1.16-0.34
				c0.34,0.09,0.52,0.75,0.86,0.84c0.34,0.1,0.84-0.37,1.17-0.27c0.33,0.11,0.48,0.78,0.8,0.9c0.33,0.12,0.86-0.32,1.19-0.19
				c0.33,0.13,0.43,0.81,0.75,0.94c0.32,0.14,0.88-0.26,1.2-0.12c0.32,0.15,0.38,0.83,0.69,0.99c0.31,0.16,0.9-0.21,1.2-0.04
				c0.31,0.17,0.32,0.85,0.63,1.03c0.3,0.18,0.91-0.15,1.2,0.03c0.3,0.18,0.27,0.87,0.56,1.07c0.29,0.19,0.91-0.1,1.2,0.1
				c0.28,0.2,0.22,0.89,0.49,1.1c0.28,0.21,0.92-0.04,1.19,0.18c0.27,0.22,0.16,0.9,0.43,1.13c0.27,0.23,0.92,0.01,1.18,0.25
				c0.26,0.24,0.11,0.91,0.36,1.15c0.25,0.24,0.92,0.07,1.16,0.32c0.24,0.25,0.05,0.91,0.29,1.17c0.24,0.26,0.91,0.13,1.14,0.39
				c0.23,0.26-0.01,0.91,0.21,1.18c0.22,0.27,0.9,0.18,1.11,0.46c0.21,0.28-0.06,0.91,0.14,1.2c0.2,0.28,0.89,0.24,1.08,0.53
				c0.19,0.29-0.12,0.9,0.07,1.2c0.18,0.3,0.87,0.29,1.05,0.59c0.17,0.3-0.17,0.9-0.01,1.2c0.17,0.31,0.85,0.34,1.01,0.66
				c0.16,0.31-0.23,0.88-0.08,1.2c0.15,0.32,0.83,0.4,0.97,0.72c0.14,0.32-0.28,0.87-0.16,1.19c0.13,0.32,0.8,0.45,0.92,0.78
				c0.12,0.33-0.34,0.85-0.23,1.18c0.11,0.33,0.77,0.5,0.87,0.83c0.1,0.34-0.39,0.83-0.3,1.16c0.08,0.34,0.74,0.54,0.82,0.88
				c0.07,0.34-0.44,0.8-0.37,1.14c0.06,0.34,0.71,0.59,0.76,0.93c0.05,0.34-0.49,0.77-0.44,1.12c0.04,0.35,0.67,0.63,0.7,0.98
				c0.03,0.35-0.53,0.74-0.51,1.09c0.02,0.35,0.63,0.67,0.64,1.02c0.01,0.35-0.58,0.71-0.58,1.06c0,0.35,0.59,0.71,0.58,1.06
				c-0.01,0.35-0.62,0.67-0.64,1.02c-0.02,0.35,0.54,0.74,0.51,1.09c-0.03,0.35-0.66,0.63-0.7,0.98c-0.04,0.35,0.5,0.77,0.44,1.12
				c-0.05,0.35-0.7,0.59-0.76,0.93c-0.06,0.34,0.45,0.8,0.37,1.14c-0.07,0.34-0.73,0.55-0.82,0.89c-0.09,0.34,0.4,0.83,0.3,1.17
				c-0.1,0.34-0.76,0.5-0.87,0.83c-0.11,0.33,0.35,0.85,0.23,1.18c-0.12,0.33-0.79,0.45-0.92,0.78c-0.13,0.33,0.29,0.87,0.16,1.19
				c-0.14,0.32-0.82,0.4-0.97,0.72c-0.15,0.32,0.24,0.89,0.08,1.2c-0.16,0.31-0.84,0.35-1.01,0.66c-0.17,0.31,0.18,0.9,0.01,1.2
				c-0.18,0.3-0.86,0.3-1.05,0.59c-0.18,0.3,0.13,0.91-0.07,1.2c-0.19,0.29-0.88,0.24-1.08,0.53c-0.2,0.28,0.07,0.92-0.14,1.2
				c-0.21,0.28-0.89,0.19-1.11,0.46c-0.22,0.27,0.01,0.92-0.21,1.18c-0.23,0.27-0.9,0.13-1.14,0.39c-0.24,0.26-0.04,0.92-0.29,1.17
				c-0.24,0.25-0.91,0.08-1.16,0.32c-0.25,0.24-0.1,0.91-0.36,1.15c-0.26,0.24-0.91,0.02-1.18,0.25c-0.26,0.23-0.15,0.91-0.43,1.13
				c-0.27,0.22-0.91-0.03-1.19,0.18c-0.28,0.21-0.21,0.9-0.49,1.1c-0.28,0.2-0.91-0.09-1.2,0.1c-0.29,0.19-0.26,0.88-0.56,1.06
				c-0.3,0.18-0.9-0.15-1.2,0.03c-0.3,0.17-0.32,0.86-0.63,1.03c-0.31,0.17-0.89-0.2-1.2-0.04c-0.31,0.16-0.37,0.84-0.69,0.99
				c-0.32,0.15-0.88-0.26-1.2-0.12c-0.32,0.14-0.42,0.82-0.75,0.94c-0.32,0.13-0.86-0.31-1.19-0.19c-0.33,0.12-0.47,0.79-0.8,0.89
				c-0.33,0.11-0.84-0.36-1.17-0.27c-0.34,0.1-0.52,0.76-0.86,0.84c-0.34,0.08-0.81-0.41-1.16-0.34c-0.34,0.07-0.57,0.72-0.91,0.79
				c-0.34,0.06-0.79-0.46-1.13-0.41c-0.34,0.05-0.61,0.69-0.96,0.73c-0.35,0.04-0.76-0.51-1.1-0.48c-0.35,0.03-0.65,0.65-1,0.67
				c-0.35,0.02-0.72-0.56-1.07-0.54C95.53,68.55,95.19,69.15,94.84,69.15z"/>
		</g>
		
			<ellipse transform="matrix(0.2327 -0.9726 0.9726 0.2327 39.0093 119.0459)" class="st5" cx="94.95" cy="34.8" rx="20.16" ry="20.16"/>
		
			<ellipse transform="matrix(0.5848 -0.8112 0.8112 0.5848 11.1912 91.4677)" class="st6" cx="94.95" cy="34.8" rx="21.58" ry="21.58"/>
		
			<ellipse transform="matrix(0.5879 -0.8089 0.8089 0.5879 10.9743 91.1458)" class="st6" cx="94.95" cy="34.8" rx="29.63" ry="29.63"/>
		
			<ellipse transform="matrix(0.2355 -0.9719 0.9719 0.2355 38.765 118.8832)" class="st6" cx="94.95" cy="34.8" rx="30.73" ry="30.73"/>
		
			<ellipse transform="matrix(0.2355 -0.9719 0.9719 0.2355 38.7604 118.8801)" class="st5" cx="94.95" cy="34.8" rx="32.17" ry="32.17"/>
		<polygon class="st3" points="71.05,36.78 69.28,35.86 67.52,36.81 67.84,34.84 66.4,33.46 68.37,33.16 69.24,31.36 70.14,33.14 
			72.11,33.41 70.7,34.81 		"/>
		<polygon class="st3" points="122.04,36.78 120.27,35.86 118.52,36.81 118.84,34.84 117.4,33.46 119.37,33.16 120.23,31.36 
			121.13,33.14 123.1,33.41 121.69,34.81 		"/>
		<g>
			<path class="st0" d="M68.12,26.66l0.27-0.67l3.05,0.77l0-0.01l-2.74-1.56l0.27-0.67l3.06,0.75l0-0.01l-2.75-1.54l0.27-0.67
				l3.67,2.2l-0.31,0.78l-3-0.75l0,0.01l2.69,1.52l-0.31,0.78L68.12,26.66z"/>
			<path class="st0" d="M70.49,21.24c0.56-0.98,1.42-0.65,2.54-0.02c1.12,0.64,1.84,1.21,1.28,2.19c-0.56,0.98-1.42,0.65-2.54,0.02
				C70.66,22.79,69.94,22.22,70.49,21.24z M73.76,23.1c0.22-0.39-0.12-0.66-1.11-1.22c-0.98-0.56-1.4-0.71-1.62-0.33
				c-0.22,0.39,0.12,0.67,1.11,1.22C73.13,23.33,73.54,23.48,73.76,23.1z"/>
			<path class="st0" d="M71.67,19.45l0.82-1.12c0.36-0.5,0.88-0.58,1.46-0.16c0.45,0.33,0.64,0.72,0.47,1.12l0.01,0.01
				c0.36-0.37,0.67-0.24,1.4,0.28c0.36,0.26,0.56,0.38,0.71,0.31l0.03,0.02l-0.48,0.66c-0.14-0.01-0.28-0.09-0.41-0.19l-0.67-0.46
				c-0.27-0.19-0.51-0.2-0.69,0.04l-0.24,0.32l1.44,1.06l-0.44,0.61L71.67,19.45z M73.6,19.93l0.19-0.25
				c0.21-0.29,0.19-0.56-0.18-0.83c-0.31-0.23-0.58-0.2-0.78,0.07l-0.21,0.29L73.6,19.93z"/>
			<path class="st0" d="M75.81,16.6c-0.45-0.42-0.72-0.52-0.95-0.27c-0.26,0.28,0,0.64,0.87,1.45c0.94,0.87,1.21,0.91,1.43,0.67
				c0.18-0.2,0.2-0.45-0.47-1.07l0.51-0.55c0.67,0.62,1.11,1.3,0.44,2.02c-0.77,0.83-1.53,0.31-2.47-0.56
				c-0.94-0.87-1.52-1.6-0.75-2.42c0.73-0.79,1.44-0.24,1.89,0.18L75.81,16.6z"/>
			<path class="st0" d="M77.45,13.13l0.46,0.53l-1,0.88l0.65,0.75l0.94-0.82l0.46,0.53l-0.94,0.82l0.75,0.86l1.04-0.91l0.46,0.53
				l-1.61,1.4l-2.78-3.18L77.45,13.13z"/>
			<path class="st0" d="M80.25,14.66l0.07,0.1c0.23,0.32,0.46,0.48,0.78,0.25c0.19-0.13,0.27-0.39,0.07-0.68
				c-0.22-0.31-0.44-0.33-0.96-0.21c-0.7,0.17-1.13,0.09-1.53-0.48c-0.47-0.67-0.35-1.27,0.23-1.68c0.55-0.38,1.13-0.4,1.6,0.27
				l0.07,0.1l-0.59,0.41c-0.23-0.32-0.46-0.44-0.69-0.28c-0.28,0.2-0.21,0.44-0.07,0.65c0.15,0.21,0.3,0.3,0.65,0.25l0.64-0.1
				c0.62-0.1,0.93,0.09,1.22,0.51c0.51,0.73,0.35,1.34-0.31,1.8c-0.7,0.49-1.23,0.31-1.68-0.33l-0.1-0.14L80.25,14.66z"/>
			<path class="st0" d="M82.56,9.84l0.34,0.61l-0.71,0.39l1.71,3.08l-0.66,0.36l-1.71-3.08l-0.71,0.39L80.47,11L82.56,9.84z"/>
			<path class="st0" d="M85.1,8.73l0.27,0.64L84.15,9.9l0.39,0.91l1.15-0.49l0.27,0.64l-1.15,0.49l0.45,1.05l1.27-0.54l0.27,0.64
				l-1.96,0.84l-1.66-3.89L85.1,8.73z"/>
			<path class="st0" d="M85.89,8.44l1.33-0.4c0.59-0.18,1.06,0.07,1.26,0.76c0.16,0.54,0.08,0.96-0.3,1.18l0,0.01
				c0.51-0.07,0.68,0.21,0.94,1.06c0.13,0.42,0.22,0.64,0.38,0.68l0.01,0.03L88.74,12c-0.1-0.09-0.16-0.24-0.22-0.4l-0.25-0.77
				c-0.1-0.31-0.29-0.47-0.58-0.38l-0.39,0.12l0.51,1.71l-0.72,0.22L85.89,8.44z M87.14,9.99l0.3-0.09c0.35-0.1,0.49-0.33,0.36-0.77
				c-0.11-0.37-0.34-0.51-0.67-0.41l-0.34,0.1L87.14,9.99z"/>
			<path class="st0" d="M90.44,7.29l1.31-0.16c0.76-0.09,1.09,0.5,1.17,1.13c0.11,0.87-0.31,1.32-1.02,1.41l-0.4,0.05l0.21,1.67
				l-0.75,0.09L90.44,7.29z M91.42,9.09l0.33-0.04c0.3-0.04,0.47-0.26,0.42-0.69c-0.05-0.41-0.23-0.63-0.6-0.58l-0.31,0.04
				L91.42,9.09z"/>
			<path class="st0" d="M94.22,6.95l0.05,2.95c0.01,0.42,0.1,0.73,0.45,0.73c0.35-0.01,0.43-0.32,0.43-0.74L95.1,6.93l0.75-0.01
				l0.05,2.95c0.02,1.08-0.56,1.37-1.17,1.38c-0.61,0.01-1.19-0.21-1.21-1.34l-0.05-2.95L94.22,6.95z"/>
			<path class="st0" d="M96.79,6.97l1.25,0.13c0.61,0.07,1.03,0.37,0.94,1.18c-0.05,0.45-0.28,0.78-0.66,0.86l0,0.01
				c0.4,0.11,0.63,0.49,0.57,1.05c-0.07,0.66-0.42,1.2-1.29,1.11l-1.26-0.13L96.79,6.97z M97.15,10.62l0.29,0.03
				c0.36,0.04,0.62-0.08,0.67-0.57c0.05-0.49-0.18-0.66-0.5-0.69l-0.32-0.03L97.15,10.62z M97.35,8.77l0.21,0.02
				c0.41,0.04,0.61-0.1,0.66-0.49c0.04-0.4-0.11-0.57-0.48-0.6l-0.27-0.03L97.35,8.77z"/>
			<path class="st0" d="M99.16,11.51l0.91-4.13l0.73,0.16l-0.76,3.44l1.3,0.29l-0.15,0.68L99.16,11.51z"/>
			<path class="st0" d="M101.46,12.05l1.22-4.05l0.72,0.22l-1.22,4.05L101.46,12.05z"/>
			<path class="st0" d="M105.16,10.38c0.23-0.57,0.22-0.86-0.09-0.99c-0.35-0.14-0.6,0.23-1.04,1.34c-0.47,1.19-0.41,1.46-0.11,1.58
				c0.25,0.1,0.5,0.02,0.83-0.82l0.7,0.28c-0.34,0.85-0.81,1.51-1.73,1.14c-1.05-0.42-0.84-1.32-0.37-2.51
				c0.47-1.19,0.94-1.99,1.99-1.57c1,0.4,0.74,1.26,0.52,1.83L105.16,10.38z"/>
			<path class="st0" d="M107.41,13.14l-0.06,0.11c-0.2,0.34-0.25,0.61,0.09,0.81c0.2,0.12,0.47,0.09,0.65-0.22
				c0.2-0.33,0.12-0.54-0.2-0.96c-0.44-0.57-0.54-0.99-0.18-1.6c0.42-0.71,1.02-0.84,1.63-0.47c0.57,0.34,0.82,0.87,0.41,1.57
				l-0.06,0.1l-0.62-0.37c0.2-0.34,0.22-0.6-0.03-0.75c-0.29-0.17-0.49-0.01-0.62,0.2c-0.13,0.22-0.16,0.4,0.04,0.69l0.35,0.54
				c0.34,0.53,0.3,0.88,0.03,1.32c-0.46,0.77-1.08,0.86-1.78,0.45c-0.73-0.44-0.79-1-0.38-1.66l0.09-0.15L107.41,13.14z"/>
			<path class="st0" d="M111.43,14.08c0.37-0.49,0.45-0.77,0.18-0.97c-0.3-0.23-0.64,0.06-1.36,1.01c-0.78,1.02-0.79,1.29-0.53,1.49
				c0.22,0.16,0.47,0.16,1.02-0.57l0.6,0.46c-0.55,0.72-1.19,1.23-1.97,0.63c-0.9-0.68-0.46-1.49,0.32-2.52
				c0.78-1.02,1.44-1.66,2.34-0.98c0.85,0.65,0.37,1.41,0,1.9L111.43,14.08z"/>
			<path class="st0" d="M113.56,13.98l0.54,0.52l-1.12,1.16l0.63,0.61l1.12-1.16l0.54,0.52l-2.93,3.04l-0.54-0.52l1.3-1.35
				l-0.63-0.61l-1.3,1.35l-0.54-0.52L113.56,13.98z"/>
			<path class="st0" d="M116.75,17.2c0.72,0.87,0.1,1.56-0.89,2.37c-0.99,0.81-1.79,1.28-2.5,0.41c-0.72-0.87-0.1-1.56,0.89-2.37
				C115.24,16.8,116.03,16.33,116.75,17.2z M113.84,19.59c0.28,0.34,0.66,0.13,1.54-0.6c0.87-0.72,1.17-1.05,0.88-1.39
				c-0.28-0.34-0.67-0.12-1.54,0.6C113.84,18.92,113.55,19.25,113.84,19.59z"/>
			<path class="st0" d="M118.71,19.9c0.61,0.95-0.08,1.56-1.16,2.25c-1.08,0.69-1.92,1.07-2.53,0.12c-0.61-0.95,0.08-1.56,1.16-2.25
				C117.26,19.33,118.1,18.95,118.71,19.9z M115.55,21.94c0.24,0.37,0.64,0.2,1.6-0.41c0.95-0.61,1.28-0.91,1.04-1.28
				c-0.24-0.37-0.65-0.2-1.6,0.41C115.63,21.27,115.31,21.57,115.55,21.94z"/>
			<path class="st0" d="M115.94,23.64l3.77-1.9l0.34,0.67l-3.15,1.58l0.6,1.19l-0.62,0.31L115.94,23.64z"/>
			<path class="st0" d="M118.43,25.83l-0.12,0.04c-0.37,0.14-0.57,0.32-0.43,0.7c0.08,0.21,0.31,0.36,0.65,0.23
				c0.36-0.14,0.43-0.35,0.44-0.88c0.01-0.72,0.19-1.12,0.85-1.37c0.77-0.29,1.32-0.03,1.57,0.63c0.24,0.62,0.11,1.19-0.65,1.48
				l-0.11,0.04l-0.26-0.67c0.37-0.14,0.54-0.34,0.44-0.6c-0.12-0.32-0.38-0.31-0.61-0.22c-0.24,0.09-0.37,0.21-0.4,0.57l-0.06,0.64
				c-0.06,0.63-0.31,0.88-0.79,1.06c-0.83,0.32-1.38,0.01-1.67-0.75c-0.3-0.8,0-1.27,0.73-1.55l0.16-0.06L118.43,25.83z"/>
		</g>
		<g>
			<path class="st0" d="M72.08,42.02l0.28,0.66l-2.25,1.39l0,0.01l2.58-0.61l0.28,0.66l-2.24,1.41l0,0.01l2.57-0.64l0.28,0.66
				l-3.52,0.75l-0.32-0.77l2.2-1.38l0-0.01l-2.52,0.61l-0.32-0.77L72.08,42.02z"/>
			<path class="st0" d="M74.41,46.79c0.57,0.96-0.01,1.47-0.94,2.02c-0.92,0.55-1.65,0.82-2.22-0.15c-0.57-0.96,0.01-1.47,0.94-2.02
				C73.11,46.1,73.84,45.83,74.41,46.79z M71.7,48.4c0.22,0.38,0.57,0.26,1.39-0.23c0.81-0.48,1.09-0.73,0.87-1.11
				c-0.22-0.38-0.58-0.25-1.39,0.23C71.75,47.77,71.48,48.02,71.7,48.4z"/>
			<path class="st0" d="M75.22,48.25l0.83,1.1c0.37,0.49,0.35,0.97-0.13,1.33c-0.37,0.28-0.75,0.32-1.07,0.04l-0.01,0.01
				c0.26,0.44,0.09,0.67-0.5,1.13c-0.29,0.23-0.43,0.36-0.4,0.52l-0.02,0.02l-0.49-0.64c0.03-0.12,0.13-0.21,0.24-0.3l0.53-0.43
				c0.21-0.18,0.27-0.38,0.09-0.62l-0.24-0.32l-1.19,0.9l-0.45-0.59L75.22,48.25z M74.45,49.78l0.19,0.25
				c0.22,0.28,0.46,0.36,0.76,0.12c0.26-0.2,0.28-0.44,0.08-0.71l-0.21-0.28L74.45,49.78z"/>
			<path class="st0" d="M77.21,52.47c0.37-0.36,0.46-0.59,0.22-0.83c-0.26-0.27-0.58-0.09-1.31,0.6c-0.77,0.74-0.8,0.99-0.58,1.22
				c0.19,0.19,0.42,0.24,0.97-0.28l0.52,0.54c-0.55,0.53-1.16,0.84-1.84,0.13c-0.77-0.81-0.32-1.44,0.46-2.18
				c0.78-0.74,1.42-1.17,2.2-0.36c0.74,0.77,0.25,1.34-0.12,1.7L77.21,52.47z"/>
			<path class="st0" d="M80.48,53.79l-0.38,0.45l-1.01-0.85l-0.54,0.64l0.95,0.8l-0.38,0.45l-0.95-0.8l-0.61,0.73l1.05,0.88
				l-0.38,0.45l-1.62-1.37l2.28-2.7L80.48,53.79z"/>
			<path class="st0" d="M79.92,56.38l-0.06,0.09c-0.19,0.27-0.22,0.51,0.1,0.73c0.19,0.13,0.45,0.13,0.61-0.11
				c0.18-0.27,0.11-0.46-0.21-0.87c-0.43-0.55-0.53-0.94-0.2-1.43c0.39-0.57,0.95-0.61,1.53-0.22c0.55,0.37,0.79,0.87,0.41,1.43
				l-0.06,0.08l-0.59-0.4c0.19-0.27,0.2-0.5-0.04-0.66c-0.28-0.19-0.47-0.07-0.58,0.1c-0.12,0.18-0.14,0.33,0.05,0.61l0.34,0.52
				c0.33,0.51,0.3,0.81,0.06,1.17c-0.42,0.62-1,0.63-1.67,0.18c-0.7-0.47-0.76-0.97-0.4-1.51l0.08-0.12L79.92,56.38z"/>
			<path class="st0" d="M84.92,56.51l-0.27,0.52l-0.71-0.38l-1.39,2.61l-0.66-0.35l1.39-2.61l-0.71-0.38l0.27-0.52L84.92,56.51z"/>
			<path class="st0" d="M87.09,57.4l-0.22,0.54l-1.22-0.5l-0.31,0.77l1.15,0.47l-0.22,0.54l-1.15-0.47l-0.36,0.88l1.27,0.52
				l-0.22,0.54l-1.96-0.8l1.33-3.28L87.09,57.4z"/>
			<path class="st0" d="M87.46,57.53l1.33,0.37c0.59,0.16,0.86,0.56,0.7,1.14c-0.13,0.45-0.4,0.7-0.83,0.67l0,0.01
				c0.47,0.2,0.47,0.48,0.28,1.2c-0.09,0.36-0.13,0.55-0.01,0.65l-0.01,0.03l-0.78-0.22c-0.04-0.11-0.02-0.25,0.01-0.38l0.16-0.66
				c0.06-0.27-0.01-0.47-0.3-0.55l-0.38-0.11l-0.4,1.44l-0.72-0.2L87.46,57.53z M87.77,59.22l0.3,0.08c0.34,0.1,0.58,0.01,0.68-0.36
				c0.09-0.31-0.04-0.52-0.37-0.61l-0.34-0.09L87.77,59.22z"/>
			<path class="st0" d="M91.4,58.51l1.1,0.09l0.32,2.53l0.01,0l0.73-2.44l1.1,0.09l-0.29,3.52l-0.68-0.06l0.23-2.81l-0.01,0
				l-0.88,2.76l-0.58-0.05l-0.43-2.86l-0.01,0l-0.23,2.81l-0.68-0.06L91.4,58.51z"/>
			<path class="st0" d="M95.92,58.7l0.92-0.05l1.19,3.47l-0.78,0.05l-0.21-0.74l-0.98,0.06l-0.13,0.76l-0.78,0.05L95.92,58.7z
				 M96.15,60.9l0.72-0.04l-0.45-1.56l-0.01,0L96.15,60.9z"/>
			<path class="st0" d="M99.06,60.83l0.02,0.1c0.06,0.33,0.19,0.52,0.58,0.45c0.22-0.04,0.41-0.21,0.36-0.51
				c-0.06-0.32-0.25-0.4-0.76-0.48c-0.69-0.1-1.04-0.3-1.14-0.88c-0.12-0.68,0.25-1.1,0.94-1.22c0.65-0.12,1.17,0.07,1.29,0.74
				l0.02,0.1l-0.7,0.12c-0.06-0.33-0.21-0.5-0.49-0.45c-0.33,0.06-0.38,0.27-0.35,0.48c0.04,0.21,0.13,0.33,0.46,0.41l0.61,0.13
				c0.59,0.13,0.78,0.37,0.86,0.8c0.13,0.74-0.28,1.15-1.07,1.29c-0.83,0.15-1.22-0.16-1.34-0.81l-0.03-0.14L99.06,60.83z"/>
			<path class="st0" d="M101.93,60.21l0.03,0.1c0.09,0.32,0.25,0.49,0.63,0.38c0.22-0.06,0.39-0.26,0.3-0.54
				c-0.09-0.31-0.29-0.37-0.81-0.39c-0.7-0.02-1.07-0.18-1.23-0.75c-0.2-0.66,0.13-1.12,0.8-1.32c0.64-0.19,1.17-0.07,1.37,0.58
				l0.03,0.09l-0.69,0.2c-0.09-0.32-0.26-0.47-0.54-0.39c-0.32,0.1-0.35,0.32-0.29,0.51c0.06,0.21,0.16,0.32,0.5,0.35l0.62,0.06
				c0.6,0.06,0.82,0.28,0.94,0.7c0.21,0.72-0.15,1.17-0.92,1.4c-0.81,0.24-1.23-0.03-1.42-0.65l-0.04-0.14L101.93,60.21z"/>
			<path class="st0" d="M103.87,56.99l0.85-0.36l2.3,2.86l-0.71,0.31l-0.45-0.62l-0.9,0.39l0.14,0.75l-0.71,0.31L103.87,56.99z
				 M104.83,58.97l0.67-0.29l-0.96-1.32l-0.01,0L104.83,58.97z"/>
			<path class="st0" d="M107.78,56.36c-0.26-0.45-0.46-0.58-0.75-0.42c-0.33,0.19-0.22,0.55,0.28,1.41
				c0.53,0.93,0.77,1.02,1.04,0.85c0.23-0.13,0.34-0.35-0.04-1.01l0.65-0.37c0.38,0.66,0.54,1.33-0.31,1.82
				c-0.97,0.56-1.47-0.03-2.01-0.96c-0.54-0.93-0.8-1.66,0.17-2.22c0.92-0.53,1.36,0.07,1.62,0.52L107.78,56.36z"/>
			<path class="st0" d="M108.19,54.71l0.6-0.45l0.81,1.08l0.7-0.52l-0.81-1.08l0.6-0.45l2.11,2.83l-0.6,0.45l-0.94-1.26l-0.7,0.52
				l0.94,1.26l-0.6,0.45L108.19,54.71z"/>
			<path class="st0" d="M110.97,52.5l1.69,1.79c0.24,0.26,0.48,0.39,0.74,0.15c0.25-0.24,0.14-0.49-0.1-0.74l-1.69-1.79l0.54-0.51
				l1.69,1.79c0.62,0.66,0.36,1.22-0.08,1.64c-0.44,0.42-0.99,0.67-1.64-0.02l-1.69-1.79L110.97,52.5z"/>
			<path class="st0" d="M114.68,52.19l0.08,0.07c0.25,0.21,0.48,0.28,0.73-0.02c0.15-0.17,0.18-0.43-0.04-0.62
				c-0.25-0.21-0.45-0.16-0.89,0.11c-0.6,0.36-0.99,0.43-1.44,0.04c-0.52-0.45-0.51-1.01-0.05-1.55c0.43-0.5,0.95-0.7,1.47-0.26
				l0.08,0.06l-0.46,0.54c-0.25-0.21-0.48-0.25-0.66-0.03c-0.22,0.26-0.12,0.45,0.04,0.59c0.17,0.14,0.31,0.18,0.61,0.02l0.55-0.28
				c0.54-0.28,0.84-0.21,1.17,0.07c0.57,0.48,0.52,1.07-0.01,1.68c-0.55,0.64-1.05,0.65-1.55,0.23l-0.11-0.09L114.68,52.19z"/>
			<path class="st0" d="M115.31,47.33l0.48,0.33l-0.75,1.09l0.69,0.47l0.7-1.02l0.48,0.33l-0.7,1.02l0.78,0.54l0.78-1.13l0.48,0.33
				l-1.2,1.75l-2.91-2L115.31,47.33z"/>
			<path class="st0" d="M116.55,45.11l0.51,0.28l-0.39,0.71l2.58,1.42l-0.36,0.65l-2.58-1.42l-0.39,0.71l-0.51-0.28L116.55,45.11z"
				/>
			<path class="st0" d="M117.52,42.86l0.54,0.23l-0.32,0.74l2.71,1.16l-0.29,0.69l-2.71-1.16l-0.32,0.74l-0.54-0.23L117.52,42.86z"
				/>
			<path class="st0" d="M120.11,42.74l0.1,0.03c0.32,0.1,0.55,0.07,0.67-0.31c0.07-0.22,0-0.47-0.28-0.55
				c-0.31-0.1-0.47,0.03-0.77,0.45c-0.41,0.57-0.75,0.78-1.31,0.61c-0.66-0.2-0.86-0.73-0.65-1.4c0.2-0.63,0.6-1.01,1.25-0.81
				l0.09,0.03l-0.21,0.68c-0.32-0.1-0.54-0.04-0.62,0.23c-0.1,0.32,0.07,0.47,0.27,0.53c0.21,0.06,0.36,0.04,0.57-0.22l0.4-0.48
				c0.39-0.46,0.69-0.52,1.1-0.39c0.71,0.22,0.89,0.78,0.65,1.55c-0.25,0.81-0.71,1.01-1.33,0.82l-0.14-0.04L120.11,42.74z"/>
		</g>
		<path class="st0" d="M103.97,34.11c0,2.53-3.84,4.58-8.57,4.58s-8.57-2.05-8.57-4.58c0-2.53,3.83-4.58,8.57-4.58
			S103.97,31.58,103.97,34.11z"/>
		<path class="st7" d="M111.89,31.96H81.46c-3.04,0-4.62,1.91-5.08,3.7c-0.42,1.63-0.01,3.31,1.05,4.29
			c0.88,0.81,3.42,2.17,8.26-2.09c8.04,5.93,16.23,4.49,26.51-4.69l1.35-1.21H111.89z M78.32,36.93l0.06-0.44
			c0.23-0.9,1.17-1.87,3.08-1.87h2.68c0.76,0,1.08,0.21,1.16,0.31C85.28,34.97,85.25,35,85.25,35c-0.01,0-0.52,0.47-0.52,0.47
			c-3.2,2.9-5.27,3.07-6.07,2.33C78.44,37.6,78.32,37.29,78.32,36.93z"/>
		<path class="st0" d="M85.65,37.09c-9.82,8.93-11.98-4.46-4.19-4.46c3.12,0,30.43,0,30.43,0C101.23,42.16,93.2,42.84,85.65,37.09z
			 M84.14,33.95c-0.78,0-2.68,0-2.68,0c-2.2,0-3.29,1.2-3.58,2.33c-0.06,0.22-0.09,0.44-0.09,0.65c0,0.57,0.2,1.08,0.57,1.42
			c0.99,0.91,3.26,0.78,6.68-2.33l0.56-0.51C86.21,34.81,85.7,33.95,84.14,33.95z"/>
		<rect x="94.57" y="42.12" class="st0" width="1.66" height="3.31"/>
		<path class="st0" d="M101.9,49.37H88.9c0-1.97,1.1-2.15,1.1-2.15h10.61C100.62,47.23,101.9,47.29,101.9,49.37z"/>
		<path class="st0" d="M98.65,47.97c0-0.02-6.5,0.01-6.5,0c0-1.66,1.46-3.01,3.25-3.01C97.19,44.97,98.65,46.31,98.65,47.97z"/>
		<path class="st0" d="M97.96,41.24c0-0.62-1.15-1.12-2.56-1.12c-1.42,0-2.56,0.5-2.56,1.12c0,0.62,1.15,1.12,2.56,1.12
			C96.81,42.36,97.96,41.86,97.96,41.24z"/>
		<path class="st0" d="M96.45,30.51c1.97-2.75,5.47-6.87,1.21-10.83c-0.66-0.61-2.04-1.22-2.11-2.27c-0.83,1.75,0.14,3.71,0.8,5.33
			C97,24.35,90.26,29.98,96.45,30.51z"/>
		<path class="st0" d="M92.89,30.46c-0.59-1.27-1.97-4.06-0.9-6.16c1.07-2.1,3.91-2.01,3.77-3.4C96.8,22.35,98.53,29.16,92.89,30.46
			z"/>
		<path class="st7" d="M93.06,27.93c0.91,1.53,3.22-1.79,3.87-3.62c0.66-1.83,0.69-3.01,0.17-3.54
			C96.14,26.23,91.64,25.53,93.06,27.93z"/>
		<path class="st7" d="M96.02,28c0.53,0.59,1.33-0.87,1.64-1.72c0.31-0.85,0.32-1.4,0.08-1.64C97.49,26.32,95.49,27.41,96.02,28z"/>
	</g>
</g>
</svg>
